<svg width="23" height="21" viewBox="0 0 23 21" fill="none" xmlns="http://www.w3.org/2000/svg">
<path d="M8.45123 17.6829C8.45123 18.9626 7.41384 20 6.13416 20C4.85447 20 3.81708 18.9626 3.81708 17.6829C3.81708 16.4032 4.85447 15.3659 6.13416 15.3659C7.41384 15.3659 8.45123 16.4032 8.45123 17.6829ZM8.45123 17.6829H14.4756M0.573181 1H3.81708V2.85366M3.81708 2.85366V12.5854H19.1098L21.4268 2.85366H3.81708ZM18.6464 17.6829C18.6464 18.9626 17.609 20 16.3293 20C15.0496 20 14.0122 18.9626 14.0122 17.6829C14.0122 16.4032 15.0496 15.3659 16.3293 15.3659C17.609 15.3659 18.6464 16.4032 18.6464 17.6829Z" stroke="black"/>
</svg>
