<svg width="20" height="19" viewBox="0 0 20 19" fill="none" xmlns="http://www.w3.org/2000/svg">
<path d="M9.54855 12.0069V12.305H10.5477V12.0069C10.5551 11.602 10.6011 11.2616 10.6858 10.9856C10.7704 10.7059 10.9103 10.4575 11.1053 10.2403C11.3004 10.0232 11.5635 9.80424 11.8947 9.58342C12.2444 9.35524 12.5351 9.11234 12.7669 8.85473C13.0025 8.59711 13.1791 8.31557 13.2969 8.0101C13.4147 7.70464 13.4736 7.36606 13.4736 6.99435C13.4736 6.43127 13.3429 5.93259 13.0816 5.49832C12.8203 5.06037 12.4578 4.71626 11.9941 4.46601C11.5304 4.21207 10.9931 4.0851 10.3821 4.0851C9.79697 4.0851 9.26701 4.20839 8.79226 4.45497C8.3175 4.69786 7.93844 5.04197 7.65506 5.48728C7.37168 5.93259 7.22078 6.45887 7.20238 7.06612H8.24574C8.26414 6.60976 8.37271 6.22701 8.57144 5.91787C8.77386 5.60505 9.03332 5.36951 9.34982 5.21126C9.67 5.04933 10.0141 4.96836 10.3821 4.96836C10.7686 4.96836 11.12 5.05117 11.4365 5.21678C11.753 5.37871 12.0033 5.60873 12.1873 5.90683C12.375 6.20493 12.4688 6.55272 12.4688 6.95019C12.4688 7.22989 12.4192 7.48935 12.3198 7.72856C12.2241 7.9641 12.0824 8.18124 11.8947 8.37997C11.7107 8.57503 11.4825 8.76088 11.2102 8.93753C10.8458 9.16939 10.5404 9.41229 10.2938 9.66623C10.0509 9.91648 9.8669 10.2238 9.74177 10.5881C9.61664 10.9525 9.55223 11.4254 9.54855 12.0069Z" fill="black"/>
<path d="M9.51543 15.3964C9.67368 15.551 9.86138 15.6283 10.0785 15.6283C10.2257 15.6283 10.3582 15.5933 10.476 15.5234C10.5974 15.4498 10.6931 15.3522 10.763 15.2308C10.8366 15.1093 10.8735 14.9769 10.8735 14.8333C10.8735 14.6125 10.7943 14.4248 10.6361 14.2702C10.4815 14.1157 10.2956 14.0384 10.0785 14.0384C9.86138 14.0384 9.67368 14.1157 9.51543 14.2702C9.36086 14.4248 9.28358 14.6125 9.28358 14.8333C9.28358 15.0505 9.36086 15.2382 9.51543 15.3964Z" fill="black"/>
<path fill-rule="evenodd" clip-rule="evenodd" d="M19.5 9.5C19.5 14.7467 15.2467 19 10 19C4.75329 19 0.5 14.7467 0.5 9.5C0.5 4.25329 4.75329 0 10 0C15.2467 0 19.5 4.25329 19.5 9.5ZM18.6364 9.5C18.6364 14.2697 14.7697 18.1364 10 18.1364C5.23027 18.1364 1.36364 14.2697 1.36364 9.5C1.36364 4.73027 5.23027 0.863636 10 0.863636C14.7697 0.863636 18.6364 4.73027 18.6364 9.5Z" fill="black"/>
</svg>
