<svg width="20" height="19" viewBox="0 0 20 19" fill="none" xmlns="http://www.w3.org/2000/svg">
<path fill-rule="evenodd" clip-rule="evenodd" d="M17 0C17.2232 0 17.4194 0.147989 17.4808 0.362639L19.4808 7.36264C19.5112 7.46918 19.5054 7.58282 19.4642 7.6857C18.9022 9.09076 17.6295 10.101 16.2398 10.2473C15.0845 10.3689 13.9317 9.88816 13.0967 8.7049C12.9284 9.0082 12.7041 9.30499 12.4129 9.55463C11.8295 10.0547 11.0264 10.3231 10 10.143C8.97364 10.3231 8.17052 10.0547 7.5871 9.55463C7.29586 9.30499 7.07161 9.0082 6.9033 8.7049C6.06828 9.88816 4.91549 10.3689 3.76016 10.2473C2.37053 10.101 1.09779 9.09076 0.535762 7.6857C0.49461 7.58282 0.488797 7.46918 0.519239 7.36264L2.51924 0.362639C2.58057 0.147989 2.77676 0 3 0H17ZM3.37715 1L1.52959 7.46647C1.99419 8.47745 2.92583 9.1539 3.86484 9.25275C4.79888 9.35107 5.86187 8.88633 6.54043 7.30304C6.62788 7.09899 6.83939 6.97704 7.05979 7.00359C7.28019 7.03014 7.4567 7.19883 7.4932 7.4178C7.56347 7.83942 7.7979 8.41824 8.2379 8.79537C8.53857 9.05309 8.97091 9.24826 9.60371 9.18886L9.65811 9.02566C9.77721 9.06536 9.8911 9.09758 10 9.12301C10.1089 9.09758 10.2228 9.06536 10.3419 9.02566L10.3963 9.18886C11.0291 9.24826 11.4614 9.05309 11.7621 8.79537C12.2021 8.41824 12.4365 7.83942 12.5068 7.4178C12.5433 7.19883 12.7198 7.03014 12.9402 7.00359C13.1606 6.97704 13.3721 7.09899 13.4596 7.30304C14.1381 8.88633 15.2011 9.35107 16.1352 9.25275C17.0742 9.1539 18.0058 8.47745 18.4704 7.46647L16.6229 1H3.37715Z" fill="black"/>
<path d="M5.5 15V11.5H6.5V14.5H13.5V11.5H14.5V15C14.5 15.2761 14.2761 15.5 14 15.5H6C5.72386 15.5 5.5 15.2761 5.5 15Z" fill="black"/>
<path d="M2 15.5V11.5H3V15.4492C3.35667 17.1376 4.5333 17.8405 5.06703 18H14.933C15.4667 17.8405 16.6433 17.1376 17 15.4492V11.5H18V15.5C18 15.5329 17.9967 15.5658 17.9903 15.5981C17.5469 17.8151 15.9465 18.7788 15.1213 18.9851C15.0816 18.995 15.0409 19 15 19H5C4.95912 19 4.91839 18.995 4.87873 18.9851C4.05348 18.7788 2.45311 17.8151 2.00971 15.5981C2.00325 15.5658 2 15.5329 2 15.5Z" fill="black"/>
</svg>
