<svg width="18" height="21" viewBox="0 0 18 21" fill="none" xmlns="http://www.w3.org/2000/svg">
<path d="M11.6795 12.6923H14.1154C16.4539 12.6923 17.0385 14.641 17.0385 15.6154V20H14.1154M11.6795 12.6923L9.00001 16.5897L6.32052 12.6923M11.6795 12.6923H6.32052M6.32052 12.6923H4.3718C3.39745 12.6923 0.961548 13.1795 0.961548 15.6154V20H14.1154M14.1154 20V17.0769M4.3718 20V17.0769M13.6282 5.87179C13.6282 8.56241 11.447 10.7436 8.75642 10.7436C6.0658 10.7436 3.88462 8.56241 3.88462 5.87179C3.88462 3.18118 6.0658 1 8.75642 1C11.447 1 13.6282 3.18118 13.6282 5.87179Z" stroke="black"/>
</svg>
